<svg width="16" height="16" viewBox="0 0 16 16" fill="none" xmlns="http://www.w3.org/2000/svg">
<g clip-path="url(#clip0_2539_174)">
<path d="M12.25 0H3.75C1.67893 0 0 1.67893 0 3.75V12.25C0 14.3211 1.67893 16 3.75 16H12.25C14.3211 16 16 14.3211 16 12.25V3.75C16 1.67893 14.3211 0 12.25 0Z" fill="#242938"/>
<path d="M5.46578 5.43771L4.73828 4.70996L4.74109 9.96634L4.74984 10.2118C4.75341 10.3278 4.77541 10.4578 4.81053 10.5932L10.5718 12.6252L12.0132 11.9871L12.0144 11.985L5.46541 5.43771H5.46578Z" fill="#00C4B3"/>
<path d="M4.81053 10.5932H4.81103C4.81036 10.5908 4.80955 10.5885 4.80859 10.5862C4.80984 10.5889 4.80984 10.5915 4.81034 10.5932H4.81053ZM12.0116 11.9872L10.5702 12.6252L4.80984 10.5932C4.91972 11.0158 5.16353 11.4907 5.42547 11.7499L7.30453 13.6197L11.486 13.6249L12.0098 11.9872H12.0116Z" fill="#22D3C5"/>
<path d="M4.75776 4.71021L2.51776 8.09314C2.33183 8.29177 2.42464 8.70164 2.72401 9.00364L4.01701 10.3073L4.82983 10.5938C4.7947 10.4588 4.77258 10.3301 4.7692 10.2123L4.76045 9.96696L4.75776 4.71058V4.71021Z" fill="#0075C9"/>
<path d="M10.6192 4.77798C10.4839 4.74367 10.3542 4.72204 10.2373 4.71873L9.97747 4.70923L4.73828 4.71048L12.0142 11.9854L12.6534 10.5439L10.6196 4.77829L10.6192 4.77798Z" fill="#0075C9"/>
<path d="M10.6123 4.77674C10.6145 4.77745 10.6167 4.77803 10.619 4.77849V4.7778C10.6167 4.7773 10.6146 4.7773 10.6123 4.77637V4.77674ZM11.7751 5.39512C11.5106 5.12887 11.0421 4.88537 10.619 4.77849L12.6528 10.5436L12.0129 11.985L13.5742 11.4861L13.5777 7.20549L11.7749 5.39499L11.7751 5.39512Z" fill="#00A8E1"/>
<path d="M10.3339 3.97017L9.03317 2.67642C8.72973 2.37817 8.31986 2.28498 8.12298 2.47061L4.74023 4.71004L9.97942 4.70879L10.2392 4.71829C10.3561 4.72186 10.486 4.74329 10.6212 4.77754L10.3343 3.96986L10.3339 3.97017Z" fill="#00C4B3"/>
</g>
<defs>
<clipPath id="clip0_2539_174">
<rect width="16" height="16" fill="white"/>
</clipPath>
</defs>
</svg>
