<svg width="273" height="158" viewBox="0 0 273 158" fill="none" xmlns="http://www.w3.org/2000/svg">
<rect width="273" height="158" fill="#242424"/>
<path d="M212.445 93.0117C210.784 93.0117 209.281 92.6254 207.939 91.8527C206.619 91.0803 205.584 90.0124 204.832 88.6492C204.082 87.2633 203.706 85.7184 203.706 84.0143C203.706 82.3785 204.059 80.8788 204.764 79.5156C205.492 78.1298 206.505 77.0392 207.802 76.244C209.099 75.426 210.579 75.0171 212.24 75.0171C213.947 75.0171 215.426 75.392 216.678 76.1417C217.952 76.8915 218.919 77.9366 219.579 79.2772C220.239 80.595 220.569 82.1171 220.569 83.8439C220.569 84.0485 220.558 84.253 220.535 84.4575C220.512 84.6617 220.501 84.7755 220.501 84.7982H207.461C207.575 86.3432 208.132 87.5361 209.134 88.3766C210.135 89.2173 211.273 89.6376 212.547 89.6376C214.504 89.6376 216.006 88.7287 217.053 86.9111L220.262 88.4449C219.511 89.8308 218.464 90.9439 217.121 91.7847C215.801 92.6027 214.243 93.0117 212.445 93.0117ZM216.746 81.9355C216.7 81.3901 216.518 80.8334 216.2 80.2655C215.881 79.6974 215.38 79.2203 214.698 78.8341C214.038 78.4251 213.207 78.2206 212.206 78.2206C211.091 78.2206 210.124 78.5614 209.304 79.243C208.508 79.9246 207.962 80.8222 207.666 81.9355H216.746Z" fill="#5E5E5E"/>
<path d="M195.465 93.0117C193.53 93.0117 191.926 92.5685 190.652 91.6824C189.4 90.7736 188.513 89.6376 187.989 88.2743L191.334 86.843C191.721 87.7745 192.279 88.4788 193.007 88.9559C193.758 89.4331 194.577 89.6717 195.465 89.6717C196.398 89.6717 197.16 89.5014 197.752 89.1605C198.344 88.7971 198.639 88.3312 198.639 87.7633C198.639 87.2179 198.401 86.7749 197.923 86.434C197.445 86.0706 196.66 85.7524 195.567 85.4798L193.246 84.9346C191.972 84.6391 190.868 84.0939 189.935 83.2987C189.025 82.4807 188.57 81.4243 188.57 80.1291C188.57 78.5614 189.218 77.3232 190.515 76.4144C191.812 75.4828 193.405 75.0171 195.294 75.0171C196.864 75.0171 198.253 75.3465 199.459 76.0054C200.688 76.6643 201.575 77.6186 202.121 78.8682L198.81 80.2655C198.492 79.5612 198.002 79.0385 197.342 78.6978C196.682 78.357 195.966 78.1865 195.192 78.1865C194.441 78.1865 193.781 78.357 193.212 78.6978C192.643 79.0158 192.359 79.4475 192.359 79.9929C192.359 80.47 192.552 80.8561 192.939 81.1517C193.348 81.4469 193.986 81.6969 194.85 81.9014L197.376 82.5149C199.083 82.9464 200.358 83.6053 201.2 84.4914C202.042 85.3548 202.463 86.4001 202.463 87.6269C202.463 88.6265 202.155 89.5353 201.541 90.3533C200.949 91.1711 200.119 91.8188 199.049 92.2959C198.002 92.773 196.808 93.0117 195.465 93.0117Z" fill="#5E5E5E"/>
<path d="M177.501 93.0117C176.295 93.0117 175.203 92.773 174.224 92.2959C173.269 91.7961 172.506 91.1145 171.937 90.2511C171.391 89.365 171.118 88.3653 171.118 87.252C171.118 85.4798 171.778 84.0824 173.098 83.0601C174.441 82.0375 176.136 81.5265 178.184 81.5265C179.982 81.5265 181.518 81.8333 182.793 82.4466V81.731C182.793 80.7085 182.383 79.868 181.564 79.2091C180.767 78.5274 179.8 78.1865 178.662 78.1865C176.933 78.1865 175.544 78.8909 174.498 80.2995L171.63 78.3229C172.427 77.255 173.417 76.4371 174.6 75.8691C175.806 75.3011 177.16 75.0171 178.662 75.0171C181.143 75.0171 183.054 75.6419 184.397 76.8915C185.762 78.1184 186.445 79.8565 186.445 82.1059V92.4663H182.793V90.3875H182.588C182.042 91.1599 181.347 91.7961 180.505 92.2959C179.664 92.773 178.662 93.0117 177.501 93.0117ZM178.116 89.9102C178.958 89.9102 179.732 89.7059 180.437 89.2969C181.165 88.8652 181.734 88.3085 182.144 87.6269C182.576 86.9226 182.793 86.1729 182.793 85.3775C181.587 84.7186 180.301 84.3891 178.935 84.3891C177.684 84.3891 176.705 84.6617 176 85.2072C175.294 85.7524 174.941 86.4455 174.941 87.286C174.941 88.0586 175.248 88.6948 175.863 89.1946C176.5 89.6717 177.251 89.9102 178.116 89.9102Z" fill="#5E5E5E"/>
<path d="M161.747 93.0115C160.518 93.0115 159.414 92.7503 158.436 92.2276C157.48 91.7051 156.763 91.0462 156.285 90.2511H156.08V92.4663H152.53V68.0646H156.285V75.3919L156.08 77.7434H156.285C156.763 76.9709 157.48 76.3234 158.436 75.8008C159.414 75.2783 160.518 75.017 161.747 75.017C163.203 75.017 164.546 75.4032 165.775 76.1757C167.027 76.9482 168.017 78.0275 168.745 79.4133C169.496 80.7766 169.871 82.3101 169.871 84.0143C169.871 85.7182 169.496 87.252 168.745 88.615C168.017 89.9782 167.027 91.0576 165.775 91.8527C164.546 92.6254 163.203 93.0115 161.747 93.0115ZM161.098 89.5695C161.986 89.5695 162.805 89.3423 163.556 88.8878C164.33 88.4334 164.944 87.7858 165.4 86.9453C165.877 86.0818 166.116 85.1049 166.116 84.0143C166.116 82.9237 165.877 81.958 165.4 81.1175C164.944 80.2541 164.33 79.5951 163.556 79.1407C162.805 78.6863 161.986 78.4591 161.098 78.4591C160.211 78.4591 159.38 78.6863 158.607 79.1407C157.856 79.5951 157.241 80.2426 156.763 81.0833C156.308 81.924 156.08 82.901 156.08 84.0143C156.08 85.1276 156.308 86.1045 156.763 86.9453C157.241 87.7858 157.856 88.4334 158.607 88.8878C159.38 89.3423 160.211 89.5695 161.098 89.5695Z" fill="#5E5E5E"/>
<path d="M142.169 93.0117C140.508 93.0117 139.006 92.6254 137.663 91.8527C136.343 91.0803 135.308 90.0124 134.557 88.6492C133.806 87.2633 133.431 85.7184 133.431 84.0143C133.431 82.3785 133.783 80.8788 134.489 79.5156C135.217 78.1298 136.23 77.0392 137.527 76.244C138.824 75.426 140.303 75.0171 141.965 75.0171C143.671 75.0171 145.151 75.392 146.402 76.1417C147.677 76.8915 148.644 77.9366 149.304 79.2772C149.964 80.595 150.294 82.1171 150.294 83.8439C150.294 84.0485 150.282 84.253 150.26 84.4575C150.237 84.6617 150.225 84.7755 150.225 84.7982H137.185C137.299 86.3432 137.857 87.5361 138.858 88.3766C139.859 89.2173 140.997 89.6376 142.272 89.6376C144.229 89.6376 145.731 88.7287 146.778 86.9111L149.986 88.4449C149.235 89.8308 148.189 90.9439 146.846 91.7847C145.526 92.6027 143.967 93.0117 142.169 93.0117ZM146.471 81.9355C146.425 81.3901 146.243 80.8334 145.924 80.2655C145.606 79.6974 145.105 79.2203 144.422 78.8341C143.762 78.4251 142.932 78.2206 141.93 78.2206C140.815 78.2206 139.848 78.5614 139.029 79.243C138.232 79.9246 137.686 80.8222 137.39 81.9355H146.471Z" fill="#5E5E5E"/>
<path d="M123.01 75.5624H126.56V78.0843H126.765C127.129 77.221 127.789 76.5053 128.745 75.9372C129.7 75.3465 130.679 75.0512 131.68 75.0512C132.499 75.0512 133.171 75.1648 133.694 75.392V79.3113C132.92 78.925 132.056 78.7319 131.1 78.7319C129.871 78.7319 128.835 79.2091 127.993 80.1633C127.174 81.0948 126.765 82.242 126.765 83.6053V92.4663H123.01V75.5624Z" fill="#5E5E5E"/>
<path d="M117.65 72.6995C116.945 72.6995 116.342 72.461 115.841 71.9839C115.363 71.484 115.124 70.8819 115.124 70.1776C115.124 69.4733 115.363 68.8825 115.841 68.4054C116.342 67.9056 116.945 67.6556 117.65 67.6556C118.356 67.6556 118.947 67.9056 119.425 68.4054C119.926 68.8825 120.176 69.4733 120.176 70.1776C120.176 70.8819 119.926 71.484 119.425 71.9839C118.947 72.461 118.356 72.6995 117.65 72.6995ZM115.773 75.5623H119.527V92.4663H115.773V75.5623Z" fill="#5E5E5E"/>
<path d="M98.6689 68.0646H113.518V71.7112H102.492V78.7318H112.425V82.3443H102.492V92.4663H98.6689V68.0646Z" fill="#5E5E5E"/>
<path d="M61.7637 99.8152C63.6411 100.57 65.6779 101.017 67.8166 101.092C70.7109 101.193 73.4632 100.595 75.9238 99.4603C72.9732 98.303 70.3009 96.6105 68.0203 94.5061C66.5419 96.8694 64.3554 98.7358 61.7637 99.8152Z" fill="#FF9100"/>
<path d="M68.0203 94.5068C62.8143 89.6997 59.6561 82.7421 59.923 75.1108C59.9317 74.863 59.9447 74.6154 59.9601 74.3678C59.0277 74.127 58.0543 73.9801 57.0525 73.9452C55.6187 73.8952 54.2301 74.0727 52.9191 74.4413C51.5294 76.8718 50.6908 79.6605 50.5863 82.6474C50.3167 90.3563 54.9893 97.092 61.7637 99.8159C64.3554 98.7365 66.5419 96.8721 68.0203 94.5068Z" fill="#FFC400"/>
<path d="M68.0202 94.5065C69.2306 92.5726 69.9645 90.3054 70.0499 87.8628C70.2747 81.4373 65.9481 75.9099 59.96 74.3675C59.9447 74.6151 59.9316 74.8628 59.9229 75.1106C59.656 82.7418 62.8142 89.6994 68.0202 94.5065Z" fill="#FF9100"/>
<path d="M69.3801 56.3061C65.9697 59.0339 63.2766 62.6307 61.6472 66.7741C60.7144 69.1475 60.1282 71.6968 59.957 74.3691C65.9452 75.9115 70.2717 81.4389 70.047 87.8644C69.9615 90.307 69.2255 92.572 68.0173 94.5081C70.2979 96.6146 72.9702 98.305 75.9208 99.4624C81.8432 96.7293 86.0452 90.8479 86.2886 83.8914C86.4461 79.3842 84.7116 75.3673 82.2607 71.9766C79.6724 68.3906 69.3801 56.3061 69.3801 56.3061Z" fill="#DD2C00"/>
</svg>
