<svg width="273" height="202" viewBox="0 0 273 202" fill="none" xmlns="http://www.w3.org/2000/svg">
<g clip-path="url(#clip0_2936_242)">
<rect width="273" height="202" fill="#242424"/>
<path opacity="0.5" d="M323.655 -96.6903H316.286M316.286 -96.6903H299.571M316.286 -96.6903V-81.2211M316.286 -96.6903V-107M299.571 -96.6903H282.857M299.571 -96.6903V-81.2211M299.571 -96.6903V-107M282.857 -96.6903H266.143M282.857 -96.6903V-81.2211M282.857 -96.6903V-107M266.143 -96.6903H249.429M266.143 -96.6903V-81.2211M266.143 -96.6903V-107M249.429 -96.6903H232.714M249.429 -96.6903V-81.2211M249.429 -96.6903V-107M232.714 -96.6903H216M232.714 -96.6903V-81.2211M232.714 -96.6903V-107M216 -96.6903H199.286M216 -96.6903V-81.2211M216 -96.6903V-107M199.286 -96.6903H182.571M199.286 -96.6903V-81.2211M199.286 -96.6903V-107M182.571 -96.6903H165.857M182.571 -96.6903V-81.2211M182.571 -96.6903V-107M165.857 -96.6903H149.143M165.857 -96.6903V-81.2211M165.857 -96.6903V-107M149.143 -96.6903H132.429M149.143 -96.6903V-81.2211M149.143 -96.6903V-107M132.429 -96.6903H115.714M132.429 -96.6903V-81.2211M132.429 -96.6903V-107M115.714 -96.6903H99M115.714 -96.6903V-81.2211M115.714 -96.6903V-107M99 -96.6903H82.2857M99 -96.6903V-81.2211M99 -96.6903V-107M82.2857 -96.6903H65.5714M82.2857 -96.6903V-81.2211M82.2857 -96.6903V-107M65.5714 -96.6903H48.8571M65.5714 -96.6903V-81.2211M65.5714 -96.6903V-107M48.8571 -96.6903H32.1429M48.8571 -96.6903V-81.2211M48.8571 -96.6903V-107M32.1429 -96.6903H15.4286M32.1429 -96.6903V-81.2211M32.1429 -96.6903V-107M15.4286 -96.6903H-1.28571M15.4286 -96.6903V-81.2211M15.4286 -96.6903V-107M-1.28571 -96.6903H-18M-1.28571 -96.6903V-81.2211M-1.28571 -96.6903V-107M-18 -96.6903V-81.2211M-18 -96.6903V-107M323.655 -81.2211H316.286M316.286 -81.2211H299.571M316.286 -81.2211V-65.752M299.571 -81.2211H282.857M299.571 -81.2211V-65.752M282.857 -81.2211H266.143M282.857 -81.2211V-65.752M266.143 -81.2211H249.429M266.143 -81.2211V-65.752M249.429 -81.2211H232.714M249.429 -81.2211V-65.752M232.714 -81.2211H216M232.714 -81.2211V-65.752M216 -81.2211H199.286M216 -81.2211V-65.752M199.286 -81.2211H182.571M199.286 -81.2211V-65.752M182.571 -81.2211H165.857M182.571 -81.2211V-65.752M165.857 -81.2211H149.143M165.857 -81.2211V-65.752M149.143 -81.2211H132.429M149.143 -81.2211V-65.752M132.429 -81.2211H115.714M132.429 -81.2211V-65.752M115.714 -81.2211H99M115.714 -81.2211V-65.752M99 -81.2211H82.2857M99 -81.2211V-65.752M82.2857 -81.2211H65.5714M82.2857 -81.2211V-65.752M65.5714 -81.2211H48.8571M65.5714 -81.2211V-65.752M48.8571 -81.2211H32.1429M48.8571 -81.2211V-65.752M32.1429 -81.2211H15.4286M32.1429 -81.2211V-65.752M15.4286 -81.2211H-1.28571M15.4286 -81.2211V-65.752M-1.28571 -81.2211H-18M-1.28571 -81.2211V-65.752M-18 -81.2211V-65.752M323.655 -65.752H316.286M316.286 -65.752H299.571M316.286 -65.752V-50.2828M299.571 -65.752H282.857M299.571 -65.752V-50.2828M282.857 -65.752H266.143M282.857 -65.752V-50.2828M266.143 -65.752H249.429M266.143 -65.752V-50.2828M249.429 -65.752H232.714M249.429 -65.752V-50.2828M232.714 -65.752H216M232.714 -65.752V-50.2828M216 -65.752H199.286M216 -65.752V-50.2828M199.286 -65.752H182.571M199.286 -65.752V-50.2828M182.571 -65.752H165.857M182.571 -65.752V-50.2828M165.857 -65.752H149.143M165.857 -65.752V-50.2828M149.143 -65.752H132.429M149.143 -65.752V-50.2828M132.429 -65.752H115.714M132.429 -65.752V-50.2828M115.714 -65.752H99M115.714 -65.752V-50.2828M99 -65.752H82.2857M99 -65.752V-50.2828M82.2857 -65.752H65.5714M82.2857 -65.752V-50.2828M65.5714 -65.752H48.8571M65.5714 -65.752V-50.2828M48.8571 -65.752H32.1429M48.8571 -65.752V-50.2828M32.1429 -65.752H15.4286M32.1429 -65.752V-50.2828M15.4286 -65.752H-1.28571M15.4286 -65.752V-50.2828M-1.28571 -65.752H-18M-1.28571 -65.752V-50.2828M-18 -65.752V-50.2828M323.655 -50.2828H316.286M316.286 -50.2828H299.571M316.286 -50.2828V-34.8137M299.571 -50.2828H282.857M299.571 -50.2828V-34.8137M282.857 -50.2828H266.143M282.857 -50.2828V-34.8137M266.143 -50.2828H249.429M266.143 -50.2828V-34.8137M249.429 -50.2828H232.714M249.429 -50.2828V-34.8137M232.714 -50.2828H216M232.714 -50.2828V-34.8137M216 -50.2828H199.286M216 -50.2828V-34.8137M199.286 -50.2828H182.571M199.286 -50.2828V-34.8137M182.571 -50.2828H165.857M182.571 -50.2828V-34.8137M165.857 -50.2828H149.143M165.857 -50.2828V-34.8137M149.143 -50.2828H132.429M149.143 -50.2828V-34.8137M132.429 -50.2828H115.714M132.429 -50.2828V-34.8137M115.714 -50.2828H99M115.714 -50.2828V-34.8137M99 -50.2828H82.2857M99 -50.2828V-34.8137M82.2857 -50.2828H65.5714M82.2857 -50.2828V-34.8137M65.5714 -50.2828H48.8571M65.5714 -50.2828V-34.8137M48.8571 -50.2828H32.1429M48.8571 -50.2828V-34.8137M32.1429 -50.2828H15.4286M32.1429 -50.2828V-34.8137M15.4286 -50.2828H-1.28571M15.4286 -50.2828V-34.8137M-1.28571 -50.2828H-18M-1.28571 -50.2828V-34.8137M-18 -50.2828V-34.8137M323.655 -34.8137H316.286M316.286 -34.8137H299.571M316.286 -34.8137V-19.3445M299.571 -34.8137H282.857M299.571 -34.8137V-19.3445M282.857 -34.8137H266.143M282.857 -34.8137V-19.3445M266.143 -34.8137H249.429M266.143 -34.8137V-19.3445M249.429 -34.8137H232.714M249.429 -34.8137V-19.3445M232.714 -34.8137H216M232.714 -34.8137V-19.3445M216 -34.8137H199.286M216 -34.8137V-19.3445M199.286 -34.8137H182.571M199.286 -34.8137V-19.3445M182.571 -34.8137H165.857M182.571 -34.8137V-19.3445M165.857 -34.8137H149.143M165.857 -34.8137V-19.3445M149.143 -34.8137H132.429M149.143 -34.8137V-19.3445M132.429 -34.8137H115.714M132.429 -34.8137V-19.3445M115.714 -34.8137H99M115.714 -34.8137V-19.3445M99 -34.8137H82.2857M99 -34.8137V-19.3445M82.2857 -34.8137H65.5714M82.2857 -34.8137V-19.3445M65.5714 -34.8137H48.8571M65.5714 -34.8137V-19.3445M48.8571 -34.8137H32.1429M48.8571 -34.8137V-19.3445M32.1429 -34.8137H15.4286M32.1429 -34.8137V-19.3445M15.4286 -34.8137H-1.28571M15.4286 -34.8137V-19.3445M-1.28571 -34.8137H-18M-1.28571 -34.8137V-19.3445M-18 -34.8137V-19.3445M323.655 -19.3445H316.286M316.286 -19.3445H299.571M316.286 -19.3445V-3.87534M299.571 -19.3445H282.857M299.571 -19.3445V-3.87534M282.857 -19.3445H266.143M282.857 -19.3445V-3.87534M266.143 -19.3445H249.429M266.143 -19.3445V-3.87534M249.429 -19.3445H232.714M249.429 -19.3445V-3.87534M232.714 -19.3445H216M232.714 -19.3445V-3.87534M216 -19.3445H199.286M216 -19.3445V-3.87534M199.286 -19.3445H182.571M199.286 -19.3445V-3.87534M182.571 -19.3445H165.857M182.571 -19.3445V-3.87534M165.857 -19.3445H149.143M165.857 -19.3445V-3.87534M149.143 -19.3445H132.429M149.143 -19.3445V-3.87534M132.429 -19.3445H115.714M132.429 -19.3445V-3.87534M115.714 -19.3445H99M115.714 -19.3445V-3.87534M99 -19.3445H82.2857M99 -19.3445V-3.87534M82.2857 -19.3445H65.5714M82.2857 -19.3445V-3.87534M65.5714 -19.3445H48.8571M65.5714 -19.3445V-3.87534M48.8571 -19.3445H32.1429M48.8571 -19.3445V-3.87534M32.1429 -19.3445H15.4286M32.1429 -19.3445V-3.87534M15.4286 -19.3445H-1.28571M15.4286 -19.3445V-3.87534M-1.28571 -19.3445H-18M-1.28571 -19.3445V-3.87534M-18 -19.3445V-3.87534M323.655 -3.87534H316.286M316.286 -3.87534H299.571M316.286 -3.87534V11.5938M299.571 -3.87534H282.857M299.571 -3.87534V11.5938M282.857 -3.87534H266.143M282.857 -3.87534V11.5938M266.143 -3.87534H249.429M266.143 -3.87534V11.5938M249.429 -3.87534H232.714M249.429 -3.87534V11.5938M232.714 -3.87534H216M232.714 -3.87534V11.5938M216 -3.87534H199.286M216 -3.87534V11.5938M199.286 -3.87534H182.571M199.286 -3.87534V11.5938M182.571 -3.87534H165.857M182.571 -3.87534V11.5938M165.857 -3.87534H149.143M165.857 -3.87534V11.5938M149.143 -3.87534H132.429M149.143 -3.87534V11.5938M132.429 -3.87534H115.714M132.429 -3.87534V11.5938M115.714 -3.87534H99M115.714 -3.87534V11.5938M99 -3.87534H82.2857M99 -3.87534V11.5938M82.2857 -3.87534H65.5714M82.2857 -3.87534V11.5938M65.5714 -3.87534H48.8571M65.5714 -3.87534V11.5938M48.8571 -3.87534H32.1429M48.8571 -3.87534V11.5938M32.1429 -3.87534H15.4286M32.1429 -3.87534V11.5938M15.4286 -3.87534H-1.28571M15.4286 -3.87534V11.5938M-1.28571 -3.87534H-18M-1.28571 -3.87534V11.5938M-18 -3.87534V11.5938M323.655 11.5938H316.286M316.286 11.5938H299.571M316.286 11.5938V27.063M299.571 11.5938H282.857M299.571 11.5938V27.063M282.857 11.5938H266.143M282.857 11.5938V27.063M266.143 11.5938H249.429M266.143 11.5938V27.063M249.429 11.5938H232.714M249.429 11.5938V27.063M232.714 11.5938H216M232.714 11.5938V27.063M216 11.5938H199.286M216 11.5938V27.063M199.286 11.5938H182.571M199.286 11.5938V27.063M182.571 11.5938H165.857M182.571 11.5938V27.063M165.857 11.5938H149.143M165.857 11.5938V27.063M149.143 11.5938H132.429M149.143 11.5938V27.063M132.429 11.5938H115.714M132.429 11.5938V27.063M115.714 11.5938H99M115.714 11.5938V27.063M99 11.5938H82.2857M99 11.5938V27.063M82.2857 11.5938H65.5714M82.2857 11.5938V27.063M65.5714 11.5938H48.8571M65.5714 11.5938V27.063M48.8571 11.5938H32.1429M48.8571 11.5938V27.063M32.1429 11.5938H15.4286M32.1429 11.5938V27.063M15.4286 11.5938H-1.28571M15.4286 11.5938V27.063M-1.28571 11.5938H-18M-1.28571 11.5938V27.063M-18 11.5938V27.063M323.655 27.063H316.286M316.286 27.063H299.571M316.286 27.063V42.5322M299.571 27.063H282.857M299.571 27.063V42.5322M282.857 27.063H266.143M282.857 27.063V42.5322M266.143 27.063H249.429M266.143 27.063V42.5322M249.429 27.063H232.714M249.429 27.063V42.5322M232.714 27.063H216M232.714 27.063V42.5322M216 27.063H199.286M216 27.063V42.5322M199.286 27.063H182.571M199.286 27.063V42.5322M182.571 27.063H165.857M182.571 27.063V42.5322M165.857 27.063H149.143M165.857 27.063V42.5322M149.143 27.063H132.429M149.143 27.063V42.5322M132.429 27.063H115.714M132.429 27.063V42.5322M115.714 27.063H99M115.714 27.063V42.5322M99 27.063H82.2857M99 27.063V42.5322M82.2857 27.063H65.5714M82.2857 27.063V42.5322M65.5714 27.063H48.8571M65.5714 27.063V42.5322M48.8571 27.063H32.1429M48.8571 27.063V42.5322M32.1429 27.063H15.4286M32.1429 27.063V42.5322M15.4286 27.063H-1.28571M15.4286 27.063V42.5322M-1.28571 27.063H-18M-1.28571 27.063V42.5322M-18 27.063V42.5322M323.655 42.5322H316.286M316.286 42.5322H299.571M316.286 42.5322V58.0013M299.571 42.5322H282.857M299.571 42.5322V58.0013M282.857 42.5322H266.143M282.857 42.5322V58.0013M266.143 42.5322H249.429M266.143 42.5322V58.0013M249.429 42.5322H232.714M249.429 42.5322V58.0013M232.714 42.5322H216M232.714 42.5322V58.0013M216 42.5322H199.286M216 42.5322V58.0013M199.286 42.5322H182.571M199.286 42.5322V58.0013M182.571 42.5322H165.857M182.571 42.5322V58.0013M165.857 42.5322H149.143M165.857 42.5322V58.0013M149.143 42.5322H132.429M149.143 42.5322V58.0013M132.429 42.5322H115.714M132.429 42.5322V58.0013M115.714 42.5322H99M115.714 42.5322V58.0013M99 42.5322H82.2857M99 42.5322V58.0013M82.2857 42.5322H65.5714M82.2857 42.5322V58.0013M65.5714 42.5322H48.8571M65.5714 42.5322V58.0013M48.8571 42.5322H32.1429M48.8571 42.5322V58.0013M32.1429 42.5322H15.4286M32.1429 42.5322V58.0013M15.4286 42.5322H-1.28571M15.4286 42.5322V58.0013M-1.28571 42.5322H-18M-1.28571 42.5322V58.0013M-18 42.5322V58.0013M323.655 58.0013H316.286M316.286 58.0013H299.571M316.286 58.0013V73.4704M299.571 58.0013H282.857M299.571 58.0013V73.4704M282.857 58.0013H266.143M282.857 58.0013V73.4704M266.143 58.0013H249.429M266.143 58.0013V73.4704M249.429 58.0013H232.714M249.429 58.0013V73.4704M232.714 58.0013H216M232.714 58.0013V73.4704M216 58.0013H199.286M216 58.0013V73.4704M199.286 58.0013H182.571M199.286 58.0013V73.4704M182.571 58.0013H165.857M182.571 58.0013V73.4704M165.857 58.0013H149.143M165.857 58.0013V73.4704M149.143 58.0013H132.429M149.143 58.0013V73.4704M132.429 58.0013H115.714M132.429 58.0013V73.4704M115.714 58.0013H99M115.714 58.0013V73.4704M99 58.0013H82.2857M99 58.0013V73.4704M82.2857 58.0013H65.5714M82.2857 58.0013V73.4704M65.5714 58.0013H48.8571M65.5714 58.0013V73.4704M48.8571 58.0013H32.1429M48.8571 58.0013V73.4704M32.1429 58.0013H15.4286M32.1429 58.0013V73.4704M15.4286 58.0013H-1.28571M15.4286 58.0013V73.4704M-1.28571 58.0013H-18M-1.28571 58.0013V73.4704M-18 58.0013V73.4704M323.655 73.4704H316.286M316.286 73.4704H299.571M316.286 73.4704V88.9396M299.571 73.4704H282.857M299.571 73.4704V88.9396M282.857 73.4704H266.143M282.857 73.4704V88.9396M266.143 73.4704H249.429M266.143 73.4704V88.9396M249.429 73.4704H232.714M249.429 73.4704V88.9396M232.714 73.4704H216M232.714 73.4704V88.9396M216 73.4704H199.286M216 73.4704V88.9396M199.286 73.4704H182.571M199.286 73.4704V88.9396M182.571 73.4704H165.857M182.571 73.4704V88.9396M165.857 73.4704H149.143M165.857 73.4704V88.9396M149.143 73.4704H132.429M149.143 73.4704V88.9396M132.429 73.4704H115.714M132.429 73.4704V88.9396M115.714 73.4704H99M115.714 73.4704V88.9396M99 73.4704H82.2857M99 73.4704V88.9396M82.2857 73.4704H65.5714M82.2857 73.4704V88.9396M65.5714 73.4704H48.8571M65.5714 73.4704V88.9396M48.8571 73.4704H32.1429M48.8571 73.4704V88.9396M32.1429 73.4704H15.4286M32.1429 73.4704V88.9396M15.4286 73.4704H-1.28571M15.4286 73.4704V88.9396M-1.28571 73.4704H-18M-1.28571 73.4704V88.9396M-18 73.4704V88.9396M323.655 88.9396H316.286M316.286 88.9396H299.571M316.286 88.9396V104.409M299.571 88.9396H282.857M299.571 88.9396V104.409M282.857 88.9396H266.143M282.857 88.9396V104.409M266.143 88.9396H249.429M266.143 88.9396V104.409M249.429 88.9396H232.714M249.429 88.9396V104.409M232.714 88.9396H216M232.714 88.9396V104.409M216 88.9396H199.286M216 88.9396V104.409M199.286 88.9396H182.571M199.286 88.9396V104.409M182.571 88.9396H165.857M182.571 88.9396V104.409M165.857 88.9396H149.143M165.857 88.9396V104.409M149.143 88.9396H132.429M149.143 88.9396V104.409M132.429 88.9396H115.714M132.429 88.9396V104.409M115.714 88.9396H99M115.714 88.9396V104.409M99 88.9396H82.2857M99 88.9396V104.409M82.2857 88.9396H65.5714M82.2857 88.9396V104.409M65.5714 88.9396H48.8571M65.5714 88.9396V104.409M48.8571 88.9396H32.1429M48.8571 88.9396V104.409M32.1429 88.9396H15.4286M32.1429 88.9396V104.409M15.4286 88.9396H-1.28571M15.4286 88.9396V104.409M-1.28571 88.9396H-18M-1.28571 88.9396V104.409M-18 88.9396V104.409M323.655 104.409H316.286M316.286 104.409H299.571M316.286 104.409V119.878M299.571 104.409H282.857M299.571 104.409V119.878M282.857 104.409H266.143M282.857 104.409V119.878M266.143 104.409H249.429M266.143 104.409V119.878M249.429 104.409H232.714M249.429 104.409V119.878M232.714 104.409H216M232.714 104.409V119.878M216 104.409H199.286M216 104.409V119.878M199.286 104.409H182.571M199.286 104.409V119.878M182.571 104.409H165.857M182.571 104.409V119.878M165.857 104.409H149.143M165.857 104.409V119.878M149.143 104.409H132.429M149.143 104.409V119.878M132.429 104.409H115.714M132.429 104.409V119.878M115.714 104.409H99M115.714 104.409V119.878M99 104.409H82.2857M99 104.409V119.878M82.2857 104.409H65.5714M82.2857 104.409V119.878M65.5714 104.409H48.8571M65.5714 104.409V119.878M48.8571 104.409H32.1429M48.8571 104.409V119.878M32.1429 104.409H15.4286M32.1429 104.409V119.878M15.4286 104.409H-1.28571M15.4286 104.409V119.878M-1.28571 104.409H-18M-1.28571 104.409V119.878M-18 104.409V119.878M323.655 119.878H316.286M316.286 119.878H299.571M316.286 119.878V135.347M299.571 119.878H282.857M299.571 119.878V135.347M282.857 119.878H266.143M282.857 119.878V135.347M266.143 119.878H249.429M266.143 119.878V135.347M249.429 119.878H232.714M249.429 119.878V135.347M232.714 119.878H216M232.714 119.878V135.347M216 119.878H199.286M216 119.878V135.347M199.286 119.878H182.571M199.286 119.878V135.347M182.571 119.878H165.857M182.571 119.878V135.347M165.857 119.878H149.143M165.857 119.878V135.347M149.143 119.878H132.429M149.143 119.878V135.347M132.429 119.878H115.714M132.429 119.878V135.347M115.714 119.878H99M115.714 119.878V135.347M99 119.878H82.2857M99 119.878V135.347M82.2857 119.878H65.5714M82.2857 119.878V135.347M65.5714 119.878H48.8571M65.5714 119.878V135.347M48.8571 119.878H32.1429M48.8571 119.878V135.347M32.1429 119.878H15.4286M32.1429 119.878V135.347M15.4286 119.878H-1.28571M15.4286 119.878V135.347M-1.28571 119.878H-18M-1.28571 119.878V135.347M-18 119.878V135.347M323.655 135.347H316.286M316.286 135.347H299.571M316.286 135.347V150.816M299.571 135.347H282.857M299.571 135.347V150.816M282.857 135.347H266.143M282.857 135.347V150.816M266.143 135.347H249.429M266.143 135.347V150.816M249.429 135.347H232.714M249.429 135.347V150.816M232.714 135.347H216M232.714 135.347V150.816M216 135.347H199.286M216 135.347V150.816M199.286 135.347H182.571M199.286 135.347V150.816M182.571 135.347H165.857M182.571 135.347V150.816M165.857 135.347H149.143M165.857 135.347V150.816M149.143 135.347H132.429M149.143 135.347V150.816M132.429 135.347H115.714M132.429 135.347V150.816M115.714 135.347H99M115.714 135.347V150.816M99 135.347H82.2857M99 135.347V150.816M82.2857 135.347H65.5714M82.2857 135.347V150.816M65.5714 135.347H48.8571M65.5714 135.347V150.816M48.8571 135.347H32.1429M48.8571 135.347V150.816M32.1429 135.347H15.4286M32.1429 135.347V150.816M15.4286 135.347H-1.28571M15.4286 135.347V150.816M-1.28571 135.347H-18M-1.28571 135.347V150.816M-18 135.347V150.816M323.655 150.816H316.286M316.286 150.816H299.571M316.286 150.816V166.285M299.571 150.816H282.857M299.571 150.816V166.285M282.857 150.816H266.143M282.857 150.816V166.285M266.143 150.816H249.429M266.143 150.816V166.285M249.429 150.816H232.714M249.429 150.816V166.285M232.714 150.816H216M232.714 150.816V166.285M216 150.816H199.286M216 150.816V166.285M199.286 150.816H182.571M199.286 150.816V166.285M182.571 150.816H165.857M182.571 150.816V166.285M165.857 150.816H149.143M165.857 150.816V166.285M149.143 150.816H132.429M149.143 150.816V166.285M132.429 150.816H115.714M132.429 150.816V166.285M115.714 150.816H99M115.714 150.816V166.285M99 150.816H82.2857M99 150.816V166.285M82.2857 150.816H65.5714M82.2857 150.816V166.285M65.5714 150.816H48.8571M65.5714 150.816V166.285M48.8571 150.816H32.1429M48.8571 150.816V166.285M32.1429 150.816H15.4286M32.1429 150.816V166.285M15.4286 150.816H-1.28571M15.4286 150.816V166.285M-1.28571 150.816H-18M-1.28571 150.816V166.285M-18 150.816V166.285M323.655 166.285H316.286M316.286 166.285H299.571M316.286 166.285V181.755M299.571 166.285H282.857M299.571 166.285V181.755M282.857 166.285H266.143M282.857 166.285V181.755M266.143 166.285H249.429M266.143 166.285V181.755M249.429 166.285H232.714M249.429 166.285V181.755M232.714 166.285H216M232.714 166.285V181.755M216 166.285H199.286M216 166.285V181.755M199.286 166.285H182.571M199.286 166.285V181.755M182.571 166.285H165.857M182.571 166.285V181.755M165.857 166.285H149.143M165.857 166.285V181.755M149.143 166.285H132.429M149.143 166.285V181.755M132.429 166.285H115.714M132.429 166.285V181.755M115.714 166.285H99M115.714 166.285V181.755M99 166.285H82.2857M99 166.285V181.755M82.2857 166.285H65.5714M82.2857 166.285V181.755M65.5714 166.285H48.8571M65.5714 166.285V181.755M48.8571 166.285H32.1429M48.8571 166.285V181.755M32.1429 166.285H15.4286M32.1429 166.285V181.755M15.4286 166.285H-1.28571M15.4286 166.285V181.755M-1.28571 166.285H-18M-1.28571 166.285V181.755M-18 166.285V181.755M323.655 181.755H316.286M316.286 181.755H299.571M316.286 181.755V197.224M299.571 181.755H282.857M299.571 181.755V197.224M282.857 181.755H266.143M282.857 181.755V197.224M266.143 181.755H249.429M266.143 181.755V197.224M249.429 181.755H232.714M249.429 181.755V197.224M232.714 181.755H216M232.714 181.755V197.224M216 181.755H199.286M216 181.755V197.224M199.286 181.755H182.571M199.286 181.755V197.224M182.571 181.755H165.857M182.571 181.755V197.224M165.857 181.755H149.143M165.857 181.755V197.224M149.143 181.755H132.429M149.143 181.755V197.224M132.429 181.755H115.714M132.429 181.755V197.224M115.714 181.755H99M115.714 181.755V197.224M99 181.755H82.2857M99 181.755V197.224M82.2857 181.755H65.5714M82.2857 181.755V197.224M65.5714 181.755H48.8571M65.5714 181.755V197.224M48.8571 181.755H32.1429M48.8571 181.755V197.224M32.1429 181.755H15.4286M32.1429 181.755V197.224M15.4286 181.755H-1.28571M15.4286 181.755V197.224M-1.28571 181.755H-18M-1.28571 181.755V197.224M-18 181.755V197.224M323.655 197.224H316.286M316.286 197.224H299.571M316.286 197.224V212.693M299.571 197.224H282.857M299.571 197.224V212.693M282.857 197.224H266.143M282.857 197.224V212.693M266.143 197.224H249.429M266.143 197.224V212.693M249.429 197.224H232.714M249.429 197.224V212.693M232.714 197.224H216M232.714 197.224V212.693M216 197.224H199.286M216 197.224V212.693M199.286 197.224H182.571M199.286 197.224V212.693M182.571 197.224H165.857M182.571 197.224V212.693M165.857 197.224H149.143M165.857 197.224V212.693M149.143 197.224H132.429M149.143 197.224V212.693M132.429 197.224H115.714M132.429 197.224V212.693M115.714 197.224H99M115.714 197.224V212.693M99 197.224H82.2857M99 197.224V212.693M82.2857 197.224H65.5714M82.2857 197.224V212.693M65.5714 197.224H48.8571M65.5714 197.224V212.693M48.8571 197.224H32.1429M48.8571 197.224V212.693M32.1429 197.224H15.4286M32.1429 197.224V212.693M15.4286 197.224H-1.28571M15.4286 197.224V212.693M-1.28571 197.224H-18M-1.28571 197.224V212.693M-18 197.224V212.693M323.655 212.693H316.286M316.286 212.693H299.571M316.286 212.693V228.162M299.571 212.693H282.857M299.571 212.693V228.162M282.857 212.693H266.143M282.857 212.693V228.162M266.143 212.693H249.429M266.143 212.693V228.162M249.429 212.693H232.714M249.429 212.693V228.162M232.714 212.693H216M232.714 212.693V228.162M216 212.693H199.286M216 212.693V228.162M199.286 212.693H182.571M199.286 212.693V228.162M182.571 212.693H165.857M182.571 212.693V228.162M165.857 212.693H149.143M165.857 212.693V228.162M149.143 212.693H132.429M149.143 212.693V228.162M132.429 212.693H115.714M132.429 212.693V228.162M115.714 212.693H99M115.714 212.693V228.162M99 212.693H82.2857M99 212.693V228.162M82.2857 212.693H65.5714M82.2857 212.693V228.162M65.5714 212.693H48.8571M65.5714 212.693V228.162M48.8571 212.693H32.1429M48.8571 212.693V228.162M32.1429 212.693H15.4286M32.1429 212.693V228.162M15.4286 212.693H-1.28571M15.4286 212.693V228.162M-1.28571 212.693H-18M-1.28571 212.693V228.162M-18 212.693V228.162M323.655 228.162H316.286M316.286 228.162H299.571M316.286 228.162V234.841M299.571 228.162H282.857M299.571 228.162V234.841M282.857 228.162H266.143M282.857 228.162V234.841M266.143 228.162H249.429M266.143 228.162V234.841M249.429 228.162H232.714M249.429 228.162V234.841M232.714 228.162H216M232.714 228.162V234.841M216 228.162H199.286M216 228.162V234.841M199.286 228.162H182.571M199.286 228.162V234.841M182.571 228.162H165.857M182.571 228.162V234.841M165.857 228.162H149.143M165.857 228.162V234.841M149.143 228.162H132.429M149.143 228.162V234.841M132.429 228.162H115.714M132.429 228.162V234.841M115.714 228.162H99M115.714 228.162V234.841M99 228.162H82.2857M99 228.162V234.841M82.2857 228.162H65.5714M82.2857 228.162V234.841M65.5714 228.162H48.8571M65.5714 228.162V234.841M48.8571 228.162H32.1429M48.8571 228.162V234.841M32.1429 228.162H15.4286M32.1429 228.162V234.841M15.4286 228.162H-1.28571M15.4286 228.162V234.841M-1.28571 228.162H-18M-1.28571 228.162V234.841M-18 228.162V234.841M333 234.841V-107" stroke="#FFF8DE" stroke-opacity="0.15" stroke-width="0.65424"/>
<g clip-path="url(#clip1_2936_242)">
<path d="M136 107.645C139.682 107.645 142.667 104.66 142.667 100.978C142.667 97.2962 139.681 94.3112 136 94.3112C132.319 94.3112 129.334 97.2962 129.334 100.978C129.334 104.66 132.318 107.645 136 107.645Z" fill="#61DAFB"/>
<path d="M136.001 115.978C154.41 115.978 169.334 109.263 169.334 100.978C169.334 92.6938 154.41 85.9781 136.001 85.9781C117.591 85.9781 102.667 92.6938 102.667 100.978C102.667 109.263 117.591 115.978 136.001 115.978Z" stroke="#61DAFB" stroke-width="3.33313"/>
<path d="M123.01 108.478C132.215 124.421 145.492 133.988 152.667 129.846C159.842 125.703 158.195 109.421 148.99 93.4782C139.786 77.5344 126.508 67.9682 119.334 72.1107C112.159 76.2525 113.805 92.535 123.01 108.478Z" stroke="#61DAFB" stroke-width="3.33313"/>
<path d="M123.01 93.4781C113.805 109.421 112.16 125.703 119.333 129.846C126.508 133.987 139.786 124.421 148.99 108.478C158.195 92.5344 159.841 76.2531 152.667 72.1106C145.492 67.9681 132.215 77.535 123.01 93.4781Z" stroke="#61DAFB" stroke-width="3.33313"/>
</g>
<rect x="199" y="27" width="17" height="16" fill="#343432"/>
<rect x="199" y="135" width="17" height="16" fill="#343432"/>
<rect x="199" y="119" width="17" height="16" fill="#343432"/>
<rect x="66" y="167" width="17" height="16" fill="#343432"/>
<rect x="215" y="119" width="17" height="16" fill="#343432"/>
<rect x="82" y="167" width="17" height="16" fill="#343432"/>
<rect x="149" y="12" width="17" height="15" fill="#343432"/>
<rect x="32" y="73" width="17" height="16" fill="#343432"/>
<rect x="32" y="88" width="17" height="16" fill="#343432"/>
<rect x="15" y="89" width="17" height="15" fill="#343432"/>
</g>
<defs>
<clipPath id="clip0_2936_242">
<rect width="273" height="202" fill="white"/>
</clipPath>
<clipPath id="clip1_2936_242">
<rect width="70" height="63.75" fill="white" transform="translate(101 69)"/>
</clipPath>
</defs>
</svg>
