<svg width="16" height="16" viewBox="0 0 16 16" fill="none" xmlns="http://www.w3.org/2000/svg">
<g clip-path="url(#clip0_2539_266)">
<path d="M12.25 0H3.75C1.67893 0 0 1.67893 0 3.75V12.25C0 14.3211 1.67893 16 3.75 16H12.25C14.3211 16 16 14.3211 16 12.25V3.75C16 1.67893 14.3211 0 12.25 0Z" fill="#242938"/>
<path d="M6.68924 3.05103H3.79924C3.22374 3.05103 2.75068 3.5424 2.75068 4.15084C2.73005 4.73809 3.18237 5.22928 3.74812 5.25059H6.72012L6.68924 3.05103Z" fill="#073042"/>
<path d="M13.24 12.8314H3.7996C3.21373 12.8314 2.75098 12.3403 2.75098 11.7316V4.14038C2.75098 4.74882 3.22404 5.24001 3.7996 5.25063H11.7078C11.7078 5.25063 13.2503 5.11201 13.2503 6.31851V12.8314H13.24Z" fill="#4285F4"/>
<path d="M8.83873 8.94493C9.26035 8.61399 9.3426 7.99474 9.0241 7.56755C8.8491 7.33268 8.58173 7.18324 8.29366 7.17249H8.32454C8.37897 7.1619 8.43492 7.1619 8.48935 7.17249V6.56393C8.48935 6.48918 8.45835 6.42512 8.39666 6.39318C8.30404 6.33974 8.19098 6.3718 8.1396 6.46787C8.11898 6.49993 8.10873 6.53193 8.11898 6.57462V7.1938C7.60485 7.27924 7.24491 7.78112 7.32698 8.32574V8.33637C7.36829 8.59262 7.5021 8.82755 7.70766 8.97699L5.96973 12.8421H7.10098L7.90298 11.0697C7.99573 10.8561 8.24241 10.7601 8.45835 10.8668C8.54079 10.9096 8.6126 10.9842 8.65373 11.0697L9.48685 12.8421H10.6385L8.83873 8.94493ZM8.25266 8.77412C7.92354 8.77412 7.66648 8.49649 7.66648 8.15493C7.66648 7.81312 7.93385 7.54624 8.26285 7.55687C8.4171 7.55687 8.55104 7.62099 8.66398 7.72787C8.90048 7.96262 8.90048 8.34705 8.67423 8.59262C8.57148 8.69943 8.4171 8.77412 8.25266 8.77412Z" fill="#3870B2"/>
<path d="M6.06152 3.58521H10.1131V4.35389H6.06152V3.58521Z" fill="white"/>
<path d="M7.94414 7.54627C8.26283 7.54627 8.53039 7.82389 8.52014 8.16552C8.52014 8.49652 8.25264 8.77414 7.92351 8.76345C7.60483 8.76345 7.34764 8.48589 7.34764 8.15495C7.34764 7.99477 7.40927 7.8452 7.5227 7.72789C7.63564 7.61033 7.78976 7.54627 7.94414 7.54627ZM8.17039 7.19383V6.55327C8.17039 6.47852 8.13958 6.41452 8.07789 6.38239C7.98539 6.32902 7.8722 6.36108 7.82058 6.4572C7.79995 6.4892 7.78977 6.52127 7.79995 6.56395V7.18327C7.28583 7.26858 6.92589 7.77058 7.00845 8.31508V8.32577C7.04964 8.58183 7.18314 8.81683 7.38883 8.9662L5.19845 13.8457C5.11627 14.0167 5.12652 14.2301 5.23964 14.3903C5.40395 14.6358 5.72302 14.6998 5.95927 14.5291C6.04177 14.4756 6.10345 14.3903 6.14452 14.3048L7.60483 11.059C7.69733 10.8455 7.94414 10.7493 8.16014 10.8561C8.24239 10.8988 8.31427 10.9736 8.35545 11.059L9.84658 14.2728C9.97014 14.5397 10.2785 14.6465 10.5358 14.5183C10.7926 14.3903 10.8956 14.0699 10.7721 13.803L8.52014 8.94495C8.93139 8.6032 9.00345 7.97339 8.6742 7.54627C8.55102 7.37539 8.37608 7.25795 8.17039 7.19383Z" fill="#073042"/>
<path d="M9.51734 4.2685C9.3629 4.2685 9.23952 4.15094 9.23952 3.99088C9.23952 3.91613 9.27027 3.83075 9.32171 3.77731C9.4349 3.67063 9.59952 3.67063 9.71265 3.77731C9.76478 3.83207 9.79416 3.90459 9.79484 3.98019C9.78459 4.14037 9.67146 4.25781 9.51734 4.2685ZM6.47334 4.25781C6.31884 4.25781 6.19565 4.12969 6.19565 3.98019C6.19565 3.90544 6.22659 3.83075 6.27777 3.77731C6.3704 3.65994 6.54546 3.6385 6.6584 3.73475H6.66871C6.78171 3.84144 6.79196 4.02288 6.68934 4.14038L6.6584 4.18294C6.60709 4.23638 6.53521 4.2685 6.46296 4.2685L6.47334 4.25781ZM9.59952 2.53875L10.1445 1.5565C10.1753 1.50312 10.1548 1.43906 10.1137 1.39637C10.0623 1.375 10.011 1.38569 9.98015 1.42844L9.4144 2.44269C8.50952 2.02631 7.48121 2.02631 6.58652 2.44269L6.03121 1.43906C6.01059 1.40706 5.96934 1.375 5.92809 1.375C5.88709 1.375 5.8459 1.39637 5.82521 1.43906C5.80471 1.47112 5.80471 1.52444 5.82521 1.5565L6.38071 2.53875C5.41384 3.08312 4.78665 4.10838 4.69434 5.24006H11.2961C11.2141 4.09775 10.5764 3.08312 9.60977 2.53875" fill="#3DDC84"/>
<path d="M12.3354 7.36489H11.9035C11.8828 7.37539 11.8623 7.39676 11.8623 7.42876V14.5291C11.8623 14.561 11.8828 14.5824 11.9139 14.5824H12.3662C12.8907 14.5824 13.3123 14.1339 13.3123 13.6001V6.37183C13.3123 6.91633 12.8907 7.35414 12.3662 7.35414H12.3354V7.36489Z" fill="#073042"/>
</g>
<defs>
<clipPath id="clip0_2539_266">
<rect width="16" height="16" fill="white"/>
</clipPath>
</defs>
</svg>
