<svg width="16" height="16" viewBox="0 0 16 16" fill="none" xmlns="http://www.w3.org/2000/svg">
<g clip-path="url(#clip0_2539_276)">
<path d="M12.25 0H3.75C1.67893 0 0 1.67893 0 3.75V12.25C0 14.3211 1.67893 16 3.75 16H12.25C14.3211 16 16 14.3211 16 12.25V3.75C16 1.67893 14.3211 0 12.25 0Z" fill="#242938"/>
<mask id="mask0_2539_276" style="mask-type:luminance" maskUnits="userSpaceOnUse" x="3" y="1" width="10" height="14">
<path d="M3.8125 1.75H12.1475V14.25H3.8125V1.75Z" fill="white"/>
</mask>
<g mask="url(#mask0_2539_276)">
<path d="M5.89685 14.2499C7.04685 14.2499 7.98016 13.3166 7.98016 12.1666V10.0833H5.89685C4.74685 10.0833 3.81348 11.0166 3.81348 12.1666C3.81348 13.3166 4.74685 14.2499 5.89685 14.2499Z" fill="#0ACF83"/>
<path d="M3.81348 8.00006C3.81348 6.85006 4.74685 5.91675 5.89685 5.91675H7.98016V10.0834H5.89685C4.74685 10.0834 3.81348 9.15006 3.81348 8.00006Z" fill="#A259FF"/>
<path d="M3.81348 3.83331C3.81348 2.68331 4.74685 1.75 5.89685 1.75H7.98016V5.91669H5.89685C4.74685 5.91669 3.81348 4.98331 3.81348 3.83331Z" fill="#F24E1E"/>
<path d="M7.98047 1.75H10.0638C11.2138 1.75 12.1472 2.68331 12.1472 3.83331C12.1472 4.98331 11.2138 5.91669 10.0638 5.91669H7.98047V1.75Z" fill="#FF7262"/>
<path d="M12.1472 8.00006C12.1472 9.15006 11.2138 10.0834 10.0638 10.0834C8.91378 10.0834 7.98047 9.15006 7.98047 8.00006C7.98047 6.85006 8.91378 5.91675 10.0638 5.91675C11.2138 5.91675 12.1472 6.85006 12.1472 8.00006Z" fill="#1ABCFE"/>
</g>
</g>
<defs>
<clipPath id="clip0_2539_276">
<rect width="16" height="16" fill="white"/>
</clipPath>
</defs>
</svg>
