<svg width="16" height="16" viewBox="0 0 16 16" fill="none" xmlns="http://www.w3.org/2000/svg">
<path d="M5.91992 14.5999C6.50492 14.8349 7.13992 14.9749 7.80992 14.9999C8.71492 15.0299 9.56992 14.8449 10.3399 14.4899C9.41992 14.1299 8.58492 13.5999 7.87492 12.9399C7.41106 13.6806 6.73014 14.2603 5.92492 14.5999H5.91992Z" fill="#FF9100"/>
<path d="M7.87028 12.94C6.24528 11.44 5.26028 9.265 5.34528 6.88C5.34528 6.805 5.35028 6.725 5.35528 6.65C4.63405 6.46598 3.87714 6.4746 3.16028 6.675C2.72528 7.435 2.46528 8.305 2.43028 9.24C2.34528 11.65 3.80528 13.755 5.92028 14.605C6.72777 14.269 7.40971 13.6885 7.87028 12.945V12.94Z" fill="#FFC400"/>
<path d="M7.87019 12.94C8.25997 12.3159 8.47894 11.6004 8.50519 10.865C8.57519 8.85502 7.22519 7.13002 5.35519 6.64502C5.35519 6.72002 5.34519 6.80002 5.34519 6.87502C5.30336 8.00756 5.50742 9.13571 5.94331 10.1818C6.37919 11.228 7.03657 12.1672 7.87019 12.935V12.94Z" fill="#FF9100"/>
<path d="M8.29547 1C7.23047 1.85 6.39047 2.975 5.88047 4.27C5.58235 5.02934 5.4052 5.83075 5.35547 6.645C6.28254 6.88464 7.10006 7.43351 7.67284 8.20086C8.24562 8.9682 8.53936 9.90805 8.50547 10.865C8.4823 11.6009 8.26309 12.3172 7.87047 12.94C8.589 13.6049 9.42486 14.1305 10.3355 14.49C12.1855 13.635 13.4955 11.8 13.5705 9.625C13.6205 8.215 13.0805 6.96 12.3155 5.9C11.5055 4.78 8.29547 1.005 8.29547 1.005V1Z" fill="#DD2C00"/>
</svg>
