<svg width="16" height="16" viewBox="0 0 16 16" fill="none" xmlns="http://www.w3.org/2000/svg">
<g clip-path="url(#clip0_2539_163)">
<path d="M12.25 0H3.75C1.67893 0 0 1.67893 0 3.75V12.25C0 14.3211 1.67893 16 3.75 16H12.25C14.3211 16 16 14.3211 16 12.25V3.75C16 1.67893 14.3211 0 12.25 0Z" fill="#242938"/>
<path d="M9.05838 2.37888L12.5443 2.375L6.69588 8.22038L5.17169 9.73606L3.4375 7.99975L9.05838 2.37888ZM9.02594 7.59806C9.07119 7.53831 9.15444 7.56781 9.21762 7.56012L12.5413 7.56094L9.51213 10.5872L7.76894 8.85469L9.02594 7.59806Z" fill="#44D1FD"/>
<path d="M6.03125 10.5902L7.76888 8.85474L9.51206 10.5872L9.51931 10.5949L7.76931 12.3287L6.03125 10.5902Z" fill="#1FBCFD"/>
<path d="M7.76953 12.3287L9.51953 10.595L12.5427 13.6212C11.404 13.6237 10.2656 13.6203 9.12728 13.6228C9.06241 13.6373 9.02228 13.578 8.98084 13.5413L7.76953 12.3287Z" fill="#08589C"/>
</g>
<defs>
<clipPath id="clip0_2539_163">
<rect width="16" height="16" fill="white"/>
</clipPath>
</defs>
</svg>
