<svg width="16" height="16" viewBox="0 0 16 16" fill="none" xmlns="http://www.w3.org/2000/svg">
<path d="M8 14.75C11.7279 14.75 14.75 11.7279 14.75 8C14.75 4.27208 11.7279 1.25 8 1.25C4.27208 1.25 1.25 4.27208 1.25 8C1.25 11.7279 4.27208 14.75 8 14.75Z" fill="black" stroke="white" stroke-width="0.5"/>
<path d="M12.6302 13.25L6.3802 5.19995H5.2002V10.8H6.1452V6.39995L11.8902 13.82C12.1502 13.645 12.3902 13.46 12.6302 13.255V13.25Z" fill="url(#paint0_linear_2539_233)"/>
<path d="M9.94531 5.19995H10.8753V10.8H9.95031L9.94531 5.19995Z" fill="url(#paint1_linear_2539_233)"/>
<defs>
<linearGradient id="paint0_linear_2539_233" x1="5.21295" y1="13.8387" x2="7.35795" y2="17.4165" gradientUnits="userSpaceOnUse">
<stop stop-color="white"/>
<stop offset="1" stop-color="white" stop-opacity="0"/>
</linearGradient>
<linearGradient id="paint1_linear_2539_233" x1="10.0256" y1="5.2312" x2="10.0256" y2="9.3672" gradientUnits="userSpaceOnUse">
<stop stop-color="white"/>
<stop offset="1" stop-color="white" stop-opacity="0"/>
</linearGradient>
</defs>
</svg>
