<svg width="16" height="16" viewBox="0 0 16 16" fill="none" xmlns="http://www.w3.org/2000/svg">
<g clip-path="url(#clip0_2539_288)">
<path d="M12.25 0H3.75C1.67893 0 0 1.67893 0 3.75V12.25C0 14.3211 1.67893 16 3.75 16H12.25C14.3211 16 16 14.3211 16 12.25V3.75C16 1.67893 14.3211 0 12.25 0Z" fill="#FF6C37"/>
<path d="M10.5662 5.53813L7.40741 8.69695L6.5166 7.8062C9.62304 4.69982 9.92998 4.96932 10.5662 5.53813Z" fill="#EEEEEE"/>
<path d="M7.40771 8.77197C7.38521 8.77197 7.37027 8.76453 7.35527 8.74953L6.45702 7.85878C6.44993 7.85202 6.44428 7.8439 6.44042 7.8349C6.43656 7.82589 6.43457 7.8162 6.43457 7.8064C6.43457 7.79661 6.43656 7.78691 6.44042 7.77791C6.44428 7.76891 6.44993 7.76078 6.45702 7.75403C9.61584 4.59515 9.94515 4.89459 10.6114 5.4934C10.6264 5.5084 10.6338 5.5234 10.6338 5.54584C10.6338 5.56834 10.6264 5.58328 10.6114 5.59815L7.45259 8.74953C7.44515 8.76453 7.42265 8.77197 7.40771 8.77197ZM6.62171 7.8064L7.40771 8.59234L10.4542 5.54584C9.90034 5.05178 9.52602 4.90209 6.62171 7.8064Z" fill="#FF6C37"/>
<path d="M8.31296 9.60281L7.45215 8.742L10.611 5.58325C11.4568 6.4365 10.1918 7.82131 8.31296 9.60281Z" fill="#EEEEEE"/>
<path d="M8.31295 9.67758C8.29045 9.67758 8.27558 9.67008 8.26058 9.65508L7.39977 8.79427C7.38477 8.77933 7.38477 8.76433 7.38477 8.74189C7.38477 8.71939 7.39227 8.70445 7.40727 8.68945L10.566 5.5307C10.5728 5.52362 10.5809 5.51799 10.5899 5.51414C10.5989 5.51029 10.6086 5.5083 10.6184 5.5083C10.6282 5.5083 10.6379 5.51029 10.6469 5.51414C10.6559 5.51799 10.6641 5.52362 10.6708 5.5307C10.7664 5.61914 10.8419 5.72703 10.8923 5.84711C10.9426 5.96719 10.9667 6.09667 10.9628 6.22683C10.9478 7.05764 10.0046 8.11308 8.37283 9.65508C8.35039 9.67008 8.32789 9.67758 8.31295 9.67758ZM7.55695 8.74189C8.03595 9.22839 8.23814 9.42308 8.31295 9.49789C9.57052 8.30026 10.7906 7.07264 10.7981 6.22683C10.8056 6.0322 10.7308 5.83758 10.6035 5.68783L7.55695 8.74189Z" fill="#FF6C37"/>
<path d="M6.53173 7.82873L7.16798 8.46498C7.18294 8.47998 7.18294 8.49496 7.16798 8.50992C7.16048 8.51742 7.16048 8.51742 7.15304 8.51742L5.83554 8.80186C5.76823 8.80936 5.70836 8.76442 5.69336 8.69705C5.68586 8.65961 5.70086 8.62223 5.72336 8.59973L6.48679 7.83623C6.50179 7.82123 6.52423 7.81373 6.53173 7.82873Z" fill="#EEEEEE"/>
<path d="M5.81279 8.87668C5.70054 8.87668 5.61816 8.7868 5.61816 8.67449C5.61816 8.62218 5.64066 8.56974 5.6781 8.5323L6.44154 7.7688C6.48648 7.73136 6.54641 7.73136 6.59129 7.7688L7.22754 8.40505C7.27241 8.44249 7.27241 8.50986 7.22754 8.55474C7.21254 8.56974 7.1976 8.57724 7.1751 8.58474L5.85773 8.86918C5.84273 8.86918 5.82773 8.87668 5.81279 8.87668ZM6.50898 7.91099L5.77541 8.64455C5.76041 8.65955 5.75291 8.68199 5.76791 8.70443C5.77541 8.72693 5.79779 8.73443 5.82029 8.72693L7.05535 8.45743L6.50898 7.91099Z" fill="#FF6C37"/>
<path d="M12.2358 3.78677C11.7567 3.3227 10.9857 3.33764 10.5216 3.8242C10.0575 4.3107 10.0725 5.0742 10.559 5.53833C10.7511 5.72393 10.9992 5.84075 11.2646 5.87054C11.53 5.90033 11.7978 5.84143 12.0262 5.70302L11.1729 4.84964L12.2358 3.78677Z" fill="#EEEEEE"/>
<path d="M11.3968 5.95C10.6857 5.95 10.1094 5.37362 10.1094 4.6625C10.1094 3.95137 10.6857 3.375 11.3968 3.375C11.7262 3.375 12.0481 3.50225 12.2876 3.73431C12.3026 3.74931 12.3101 3.76431 12.3101 3.78669C12.3101 3.80919 12.3026 3.82419 12.2876 3.83912L11.2771 4.84963L12.0705 5.64306C12.1005 5.67306 12.1005 5.71794 12.0705 5.74788L12.0556 5.76288C11.8609 5.88256 11.6289 5.95 11.3968 5.95ZM11.3968 3.53225C10.7681 3.53225 10.2591 4.04119 10.2666 4.67C10.2666 5.29875 10.7755 5.80775 11.4043 5.80031C11.5765 5.80031 11.7486 5.76281 11.9058 5.6805L11.1199 4.90206C11.1049 4.88706 11.0974 4.87206 11.0974 4.84963C11.0974 4.82713 11.1049 4.81219 11.1199 4.79725L12.1229 3.79419C11.9208 3.62206 11.6663 3.53225 11.3968 3.53225Z" fill="#FF6C37"/>
<path d="M12.2582 3.80919L12.2433 3.79419L11.1729 4.84963L12.0187 5.6955C12.1011 5.64306 12.1834 5.58325 12.2508 5.51588C12.3642 5.40479 12.4544 5.2723 12.5163 5.12608C12.5781 4.97987 12.6103 4.82283 12.611 4.66409C12.6117 4.50534 12.5808 4.34803 12.5203 4.20128C12.4597 4.05453 12.3707 3.92126 12.2582 3.80919Z" fill="#EEEEEE"/>
<path d="M12.0258 5.77785C12.0033 5.77785 11.9884 5.77035 11.9734 5.75535L11.1201 4.90204C11.1051 4.88704 11.0977 4.8721 11.0977 4.84966C11.0977 4.82716 11.1051 4.81216 11.1201 4.79723L12.183 3.73441C12.213 3.70441 12.2578 3.70441 12.2878 3.73441L12.3103 3.74941C12.8118 4.25085 12.8118 5.05929 12.3178 5.56835C12.2429 5.64316 12.1605 5.71054 12.0707 5.76291C12.0483 5.77041 12.0333 5.77785 12.0258 5.77785ZM11.2773 4.84973L12.0333 5.60573C12.0932 5.56835 12.1531 5.51591 12.198 5.47098C12.6247 5.04429 12.6471 4.34823 12.2354 3.8991L11.2773 4.84973Z" fill="#FF6C37"/>
<path d="M10.694 5.67305C10.6075 5.58678 10.4904 5.53833 10.3683 5.53833C10.2462 5.53833 10.1291 5.58678 10.0427 5.67305L7.2207 8.49506L7.69233 8.96662L10.679 6.3468C10.8736 6.18205 10.8885 5.89012 10.7239 5.69555C10.7089 5.68805 10.7014 5.68055 10.694 5.67305Z" fill="#EEEEEE"/>
<path d="M7.6841 9.0414C7.66166 9.0414 7.64666 9.0339 7.63166 9.01896L7.1601 8.5474C7.15302 8.54063 7.14738 8.5325 7.14353 8.52349C7.13968 8.51448 7.1377 8.50479 7.1377 8.49499C7.1377 8.4852 7.13968 8.4755 7.14353 8.46649C7.14738 8.45749 7.15302 8.44935 7.1601 8.44258L9.98203 5.62059C10.0316 5.57076 10.0905 5.53123 10.1554 5.50425C10.2202 5.47727 10.2898 5.46338 10.3601 5.46338C10.4303 5.46338 10.4999 5.47727 10.5648 5.50425C10.6297 5.53123 10.6886 5.57076 10.7381 5.62059C10.7879 5.67013 10.8275 5.72903 10.8544 5.79391C10.8814 5.85878 10.8953 5.92835 10.8953 5.99862C10.8953 6.06888 10.8814 6.13845 10.8544 6.20332C10.8275 6.2682 10.7879 6.3271 10.7381 6.37665L10.7157 6.39909L7.72897 9.01896C7.72151 9.03392 7.70656 9.0414 7.6841 9.0414ZM7.32478 8.49496L7.6916 8.86177L10.6258 6.28677C10.7905 6.15202 10.8055 5.90502 10.6707 5.7404C10.536 5.57577 10.289 5.56077 10.1243 5.6954C10.1168 5.7029 10.1093 5.7104 10.0943 5.7179L7.32478 8.49496Z" fill="#FF6C37"/>
<path d="M5.05709 11.7064C5.02709 11.7213 5.01215 11.7512 5.01959 11.7812L5.1469 12.3202C5.1769 12.395 5.1319 12.4849 5.04959 12.5073C4.98971 12.5297 4.9224 12.5073 4.88496 12.4624L4.06152 11.6465L6.74877 8.95923L7.67696 8.97417L8.30571 9.60298C8.15602 9.73023 7.25027 10.606 5.05709 11.7064Z" fill="#EEEEEE"/>
<path d="M4.99752 12.582C4.93764 12.582 4.87777 12.5596 4.84033 12.5147L4.02439 11.6988C4.00939 11.6838 4.00195 11.6688 4.00195 11.6464C4.00195 11.624 4.00945 11.609 4.02445 11.594L6.71164 8.90678C6.72664 8.89178 6.74908 8.88428 6.76408 8.88428L7.69227 8.89928C7.7147 8.89928 7.72964 8.90678 7.74458 8.92171L8.37339 9.55046C8.38839 9.56546 8.39583 9.5879 8.39583 9.61034C8.39583 9.63284 8.38839 9.64778 8.36589 9.66278L8.31352 9.70772C7.52008 10.4038 6.44214 11.1 5.10227 11.7662L5.22958 12.2976C5.25202 12.3949 5.20708 12.4997 5.11727 12.5521C5.07233 12.5745 5.03495 12.582 4.99752 12.582ZM4.17408 11.6464L4.94514 12.4099C4.96752 12.4473 5.01245 12.4623 5.04989 12.4398C5.08733 12.4174 5.10233 12.3725 5.07989 12.335L4.95264 11.7961C4.93764 11.7287 4.96752 11.6688 5.02745 11.6389C6.35233 10.9727 7.42277 10.2841 8.2087 9.6029L7.65483 9.04896L6.79402 9.03397L4.17408 11.6464Z" fill="#FF6C37"/>
<path d="M3.42528 12.29L4.06903 11.6462L5.02716 12.6044L3.50016 12.4996C3.43278 12.4921 3.38785 12.4322 3.39535 12.3648C3.39535 12.3349 3.40278 12.3049 3.42528 12.29Z" fill="#EEEEEE"/>
<path d="M5.0272 12.6719L3.4927 12.5671C3.38039 12.5596 3.30552 12.4623 3.31302 12.35C3.32052 12.3051 3.33552 12.2602 3.37295 12.2303L4.0167 11.5865C4.02346 11.5794 4.03158 11.5738 4.04059 11.5699C4.04959 11.5661 4.05928 11.5641 4.06908 11.5641C4.07887 11.5641 4.08857 11.5661 4.09757 11.5699C4.10657 11.5738 4.1147 11.5794 4.12145 11.5865L5.07958 12.5447C5.10208 12.5671 5.10958 12.597 5.09458 12.627C5.07958 12.6569 5.05712 12.6719 5.0272 12.6719ZM4.06908 11.7512L3.47777 12.3425C3.45527 12.3575 3.45527 12.395 3.47777 12.4099C3.48527 12.4174 3.49277 12.4249 3.5077 12.4249L4.83258 12.5147L4.06908 11.7512ZM6.48683 9.30353C6.44189 9.30353 6.41195 9.2661 6.41195 9.22866C6.41195 9.20622 6.41945 9.19128 6.43445 9.17628L7.16052 8.45022C7.16727 8.44312 7.1754 8.43746 7.18441 8.43359C7.19342 8.42973 7.20312 8.42773 7.21292 8.42773C7.22273 8.42773 7.23243 8.42973 7.24144 8.43359C7.25045 8.43746 7.25857 8.44312 7.26533 8.45022L7.73689 8.92178C7.75933 8.94422 7.76683 8.96666 7.75933 8.99666C7.75183 9.0191 7.72939 9.04153 7.69952 9.04903L6.50183 9.30353H6.48683ZM7.21289 8.60741L6.71889 9.10147L7.52727 8.92922L7.21289 8.60741Z" fill="#FF6C37"/>
<path d="M7.67665 8.97407L6.85328 9.15376C6.7934 9.16876 6.73346 9.13132 6.71853 9.07145C6.71103 9.03401 6.71853 8.99657 6.74846 8.96663L7.20503 8.51001L7.67665 8.97407Z" fill="#EEEEEE"/>
<path d="M6.8385 9.22853C6.81386 9.22878 6.78941 9.22411 6.7666 9.21479C6.74378 9.20548 6.72305 9.1917 6.70563 9.17428C6.6882 9.15685 6.67442 9.13612 6.66511 9.11331C6.65579 9.09049 6.65113 9.06604 6.65138 9.0414C6.65138 8.98903 6.67381 8.94409 6.70375 8.90671L7.16038 8.45009C7.16713 8.44298 7.17526 8.43733 7.18427 8.43346C7.19328 8.4296 7.20298 8.4276 7.21278 8.4276C7.22259 8.4276 7.23229 8.4296 7.2413 8.43346C7.25031 8.43733 7.25843 8.44298 7.26519 8.45009L7.73675 8.92165C7.75919 8.94409 7.76669 8.96653 7.75919 8.99653C7.75169 9.01896 7.72925 9.0414 7.69938 9.0489L6.87594 9.22853H6.8385ZM7.21275 8.60728L6.80856 9.01146C6.79363 9.02646 6.79363 9.0414 6.80106 9.0564C6.80856 9.07136 6.82354 9.07884 6.846 9.07884L7.53463 8.92909L7.21275 8.60728ZM12.2654 4.52765C12.2504 4.48278 12.198 4.46034 12.1531 4.47534C12.1082 4.49021 12.0858 4.54265 12.1008 4.58759C12.1008 4.59509 12.1082 4.60259 12.1082 4.61003C12.1531 4.6999 12.1382 4.81215 12.0783 4.89446C12.0483 4.93196 12.0558 4.98434 12.0858 5.01428C12.1232 5.04415 12.1756 5.03678 12.2055 4.99928C12.3178 4.85703 12.3403 4.6774 12.2654 4.52765Z" fill="#FF6C37"/>
</g>
<defs>
<clipPath id="clip0_2539_288">
<rect width="16" height="16" fill="white"/>
</clipPath>
</defs>
</svg>
