<svg width="16" height="16" viewBox="0 0 16 16" fill="none" xmlns="http://www.w3.org/2000/svg">
<g clip-path="url(#clip0_2539_259)">
<path d="M12.25 0H3.75C1.67893 0 0 1.67893 0 3.75V12.25C0 14.3211 1.67893 16 3.75 16H12.25C14.3211 16 16 14.3211 16 12.25V3.75C16 1.67893 14.3211 0 12.25 0Z" fill="#242938"/>
<path d="M2.10681 6.26301C2.10681 6.26301 1.81087 6.0497 2.166 5.76489L2.99325 5.02514C2.99325 5.02514 3.23 4.77608 3.48025 4.99308L11.1146 10.773V13.5446C11.1146 13.5446 11.1109 13.9799 10.5523 13.9318L2.10681 6.26301Z" fill="#2489CA"/>
<path d="M4.07522 8.04956L2.10747 9.8385C2.10747 9.8385 1.90522 9.98894 2.10747 10.2577L3.02103 11.0887C3.02103 11.0887 3.23803 11.3217 3.55859 11.0566L5.64472 9.47481L4.07522 8.04956Z" fill="#1070B3"/>
<path d="M7.52966 8.06437L11.1385 5.30875L11.115 2.55193C11.115 2.55193 10.9609 1.95025 10.4468 2.26343L5.64453 6.63412L7.52966 8.06437Z" fill="#0877B9"/>
<path d="M10.5523 13.9355C10.7619 14.15 11.0159 14.0797 11.0159 14.0797L13.8282 12.6939C14.1882 12.4485 14.1377 12.144 14.1377 12.144V3.86861C14.1377 3.50486 13.7653 3.37917 13.7653 3.37917L11.3279 2.20417C10.7952 1.87498 10.4463 2.26336 10.4463 2.26336C10.4463 2.26336 10.895 1.94036 11.1145 2.55186V13.494C11.1148 13.5687 11.0984 13.6424 11.0665 13.7099C11.0024 13.8393 10.863 13.9601 10.5289 13.9095L10.5523 13.9355Z" fill="#3C99D4"/>
</g>
<defs>
<clipPath id="clip0_2539_259">
<rect width="16" height="16" fill="white"/>
</clipPath>
</defs>
</svg>
